<svg width="689" height="442" viewBox="0 0 689 442" fill="none" xmlns="http://www.w3.org/2000/svg">
<path d="M547.776 438.914C631.333 438.914 693.883 348.588 676.238 252.813C675.991 251.509 675.743 250.234 675.496 248.93C660.174 170.195 595.152 121.685 509.594 134.899C430.387 147.128 431.697 98.0385 362.4 51.151C214.143 -49.0861 -0.296631 -6.51644 51.0088 218.966C59.535 256.407 53.0106 281.183 42.8286 302.019C13.0488 362.99 50.9347 438.914 110.84 438.914H547.776Z" fill="url(#paint0_linear)" fill-opacity="0.4"/>
<g opacity="0.19">
<path d="M135.368 208.471C135.204 209.538 134.383 210.277 133.316 210.524C129.375 211.345 124.532 212.001 118.95 212.001C113.286 212.001 108.36 211.345 104.42 210.441C103.435 210.195 102.614 209.456 102.368 208.471C102.039 207.24 101.875 205.762 101.875 204.038C101.875 202.724 102.121 201.657 102.368 200.671C102.614 199.686 103.435 198.865 104.42 198.701C108.442 197.962 113.45 197.305 119.032 197.305C124.45 197.305 129.211 197.88 133.152 198.701C134.219 198.865 135.04 199.768 135.286 200.836C135.532 201.903 135.614 203.217 135.614 204.694C135.778 206.09 135.614 207.404 135.368 208.471Z" fill="#9B8EE0"/>
<path d="M172.062 208.471C171.898 209.538 171.077 210.277 170.01 210.524C166.07 211.345 161.226 212.001 155.644 212.001C149.98 212.001 145.054 211.345 141.114 210.441C140.129 210.195 139.308 209.456 139.062 208.471C138.733 207.24 138.569 205.762 138.569 204.038C138.569 202.724 138.815 201.657 139.062 200.671C139.308 199.686 140.129 198.865 141.114 198.701C145.136 197.962 150.144 197.305 155.726 197.305C161.144 197.305 165.905 197.88 169.846 198.701C170.913 198.865 171.734 199.768 171.98 200.836C172.226 201.903 172.308 203.217 172.308 204.694C172.473 206.09 172.308 207.404 172.062 208.471Z" fill="#9B8EE0"/>
<path d="M153.757 192.625C153.593 193.693 152.772 194.432 151.705 194.678C147.764 195.499 142.921 196.156 137.339 196.156C131.675 196.156 126.749 195.499 122.809 194.596C121.824 194.349 121.003 193.611 120.757 192.625C120.428 191.394 120.264 189.916 120.264 188.192C120.264 186.878 120.51 185.811 120.757 184.826C121.003 183.84 121.824 183.019 122.809 182.855C126.831 182.116 131.839 181.459 137.421 181.459C142.839 181.459 147.6 182.034 151.541 182.855C152.608 183.019 153.429 183.923 153.675 184.99C153.921 186.057 154.003 187.371 154.003 188.849C154.085 190.326 153.921 191.558 153.757 192.625Z" fill="#B7AEE3"/>
<path d="M189.823 133.922C189.659 134.99 188.838 135.729 187.771 135.975C183.831 136.796 178.987 137.453 173.405 137.453C167.741 137.453 162.815 136.796 158.875 135.893C157.89 135.647 157.069 134.908 156.823 133.922C156.494 132.691 156.33 131.213 156.33 129.489C156.33 128.175 156.576 127.108 156.823 126.123C157.069 125.137 157.89 124.316 158.875 124.152C162.98 123.413 167.905 122.839 173.569 122.839C178.987 122.839 183.748 123.413 187.689 124.234C188.756 124.399 189.577 125.302 189.823 126.369C190.069 127.436 190.152 128.75 190.152 130.228C190.152 131.624 189.987 132.855 189.823 133.922Z" fill="#9B8EE0"/>
<path d="M228.569 177.929C228.405 178.996 227.584 179.735 226.517 179.982C222.577 180.803 217.733 181.459 212.151 181.459C206.487 181.459 201.562 180.803 197.621 179.9C196.636 179.653 195.815 178.914 195.569 177.929C195.241 176.698 195.076 175.22 195.076 173.496C195.076 172.182 195.323 171.115 195.569 170.129C195.815 169.144 196.636 168.323 197.621 168.159C201.644 167.42 206.651 166.763 212.233 166.763C217.651 166.763 222.413 167.338 226.353 168.159C227.42 168.323 228.241 169.226 228.487 170.294C228.734 171.361 228.816 172.675 228.816 174.152C228.98 175.63 228.816 176.862 228.569 177.929Z" fill="#B7AEE3"/>
</g>
<g opacity="0.19">
<path d="M593.196 234.815C593.36 235.882 594.181 236.621 595.248 236.867C599.188 237.688 604.032 238.345 609.614 238.345C615.278 238.345 620.203 237.688 624.144 236.785C625.129 236.539 625.95 235.8 626.196 234.815C626.524 233.583 626.689 232.105 626.689 230.381C626.689 229.068 626.442 228 626.196 227.015C625.95 226.03 625.129 225.209 624.144 225.045C620.121 224.306 615.114 223.649 609.532 223.649C604.114 223.649 599.352 224.224 595.412 225.045C594.345 225.209 593.524 226.112 593.278 227.179C593.031 228.247 592.949 229.56 592.949 231.038C592.785 232.434 592.949 233.747 593.196 234.815Z" fill="#9B8EE0"/>
<path d="M556.501 234.815C556.666 235.882 557.487 236.621 558.554 236.867C562.494 237.688 567.337 238.345 572.92 238.345C578.584 238.345 583.509 237.688 587.45 236.785C588.435 236.539 589.256 235.8 589.502 234.815C589.83 233.583 589.994 232.105 589.994 230.381C589.994 229.068 589.748 228 589.502 227.015C589.256 226.03 588.435 225.209 587.45 225.045C583.427 224.306 578.42 223.649 572.837 223.649C567.42 223.649 562.658 224.224 558.718 225.045C557.651 225.209 556.83 226.112 556.584 227.179C556.337 228.247 556.255 229.56 556.255 231.038C556.091 232.434 556.255 233.747 556.501 234.815Z" fill="#9B8EE0"/>
<path d="M574.807 218.969C574.971 220.036 575.792 220.775 576.859 221.022C580.799 221.843 585.643 222.499 591.225 222.499C596.889 222.499 601.814 221.843 605.755 220.94C606.74 220.693 607.561 219.954 607.807 218.969C608.135 217.738 608.3 216.26 608.3 214.536C608.3 213.222 608.053 212.155 607.807 211.169C607.561 210.184 606.74 209.363 605.755 209.199C601.732 208.46 596.725 207.803 591.143 207.803C585.725 207.803 580.963 208.378 577.023 209.199C575.956 209.363 575.135 210.266 574.889 211.334C574.642 212.401 574.56 213.715 574.56 215.192C574.478 216.67 574.642 217.902 574.807 218.969Z" fill="#B7AEE3"/>
<path d="M538.74 160.266C538.905 161.333 539.726 162.072 540.793 162.319C544.733 163.14 549.576 163.796 555.159 163.796C560.823 163.796 565.748 163.14 569.689 162.237C570.674 161.99 571.495 161.251 571.741 160.266C572.069 159.035 572.233 157.557 572.233 155.833C572.233 154.519 571.987 153.452 571.741 152.466C571.495 151.481 570.674 150.66 569.689 150.496C565.584 149.757 560.659 149.182 554.994 149.182C549.576 149.182 544.815 149.757 540.875 150.578C539.808 150.742 538.987 151.645 538.74 152.713C538.494 153.78 538.412 155.094 538.412 156.572C538.412 157.967 538.576 159.199 538.74 160.266Z" fill="#9B8EE0"/>
<path d="M499.994 204.273C500.158 205.34 500.979 206.079 502.046 206.325C505.987 207.146 510.83 207.803 516.412 207.803C522.077 207.803 527.002 207.146 530.942 206.243C531.927 205.997 532.748 205.258 532.995 204.273C533.323 203.041 533.487 201.563 533.487 199.839C533.487 198.526 533.241 197.458 532.995 196.473C532.748 195.488 531.927 194.667 530.942 194.503C526.92 193.764 521.912 193.107 516.33 193.107C510.912 193.107 506.151 193.682 502.211 194.503C501.143 194.667 500.323 195.57 500.076 196.637C499.83 197.705 499.748 199.018 499.748 200.496C499.584 201.974 499.748 203.205 499.994 204.273Z" fill="#B7AEE3"/>
</g>
<path d="M569.857 255.034V258.231C569.857 259.354 570.232 260.276 570.664 260.276H687.674C688.106 260.276 688.48 259.354 688.48 258.231V255.034C688.48 253.911 688.106 252.99 687.674 252.99H570.664C570.232 252.99 569.857 253.911 569.857 255.034Z" fill="#9B8EE0"/>
<path d="M569.857 255.034V258.231C569.857 259.354 570.203 260.276 570.606 260.276H663.505C663.909 260.276 664.254 259.354 664.254 258.231V255.034C664.254 253.911 663.909 252.99 663.505 252.99H570.606C570.203 252.99 569.857 253.911 569.857 255.034Z" fill="#AEA1F0"/>
<path d="M599.479 381.326H682.556V260.26H599.479V381.326Z" fill="#6B52CA"/>
<path d="M576.193 381.326H659.269V260.26H576.193V381.326Z" fill="#806ECC"/>
<path d="M580.66 263.703H654.806V374.661H580.66V263.703ZM654 264.48H581.466V373.826H654V264.48Z" fill="#9B8EE0"/>
<path d="M654.403 300.391H581.063V301.198H654.403V300.391Z" fill="#9B8EE0"/>
<path d="M654.403 337.829H581.063V338.635H654.403V337.829Z" fill="#9B8EE0"/>
<path d="M610.215 270.845H623.811C624.474 270.845 625.021 270.297 625.021 269.635C625.021 268.973 624.474 268.426 623.811 268.426H610.215C609.552 268.426 609.005 268.973 609.005 269.635C609.005 270.297 609.552 270.845 610.215 270.845Z" fill="#9B8EE0"/>
<path d="M610.215 307.447H623.811C624.474 307.447 625.021 306.9 625.021 306.237C625.021 305.575 624.474 305.028 623.811 305.028H610.215C609.552 305.028 609.005 305.575 609.005 306.237C609.005 306.9 609.552 307.447 610.215 307.447Z" fill="#9B8EE0"/>
<path d="M610.215 345.575H623.811C624.474 345.575 625.021 345.028 625.021 344.366C625.021 343.703 624.474 343.156 623.811 343.156H610.215C609.552 343.156 609.005 343.703 609.005 344.366C609.005 345.057 609.552 345.575 610.215 345.575Z" fill="#9B8EE0"/>
<path d="M72.8364 314.151C72.8364 314.151 83.682 301.554 73.5055 293.545C73.5055 293.545 66.0892 289.068 60.039 289.429C60.039 289.429 68.6263 303.778 65.8382 305.197C63.0502 306.615 57.4461 288.511 57.4461 288.511C57.4461 288.511 40.5502 286.871 35.1135 289.485C35.1135 289.485 49.5558 301.276 46.5168 301.971C43.4777 302.666 27.8644 291.098 27.8644 291.098C27.8644 291.098 12.1396 293.767 12.976 303.334C13.8124 312.9 19.2213 315.847 21.6191 315.597C23.989 315.347 37.9294 310.035 38.2361 311.982C38.5428 313.929 30.1507 320.297 24.2678 320.575C24.2678 320.575 35.3644 332.783 42.725 329.251C50.0855 325.72 50.7268 320.158 55.3271 318.072C59.9275 315.986 63.8308 315.986 61.9349 318.128C60.039 320.269 51.7305 322.327 49.1097 326.971C46.4889 331.615 44.119 334.73 51.7584 333.589C59.3699 332.449 71.7769 326.887 72.3066 320.519C72.8364 314.151 72.8364 314.151 72.8364 314.151Z" fill="#6B52CA"/>
<path d="M20.6992 303.612C20.6992 303.612 63.4127 301.971 72.8365 314.151C72.8365 314.151 74.9275 320.38 81.3402 326.053L82.3439 328.779C82.3439 328.779 74.9554 320.992 72.3067 320.519C72.3067 320.519 76.4331 305.447 20.6992 303.612Z" fill="#6B52CA"/>
<path d="M81.34 326.053C81.34 326.053 90.5128 332.811 91.1541 344.908L89.4812 345.047C89.4812 345.047 86.5537 332.561 81.2563 327.666C75.9868 322.8 81.34 326.053 81.34 326.053Z" fill="#6B52CA"/>
<path d="M110.726 298.3C110.726 298.3 93.4959 288.678 101.526 275.608C101.526 275.608 107.966 267.599 114.853 265.514C114.853 265.514 111.172 285.008 114.853 285.453C118.533 285.897 117.39 263.456 117.39 263.456C117.39 263.456 135.54 254.752 142.678 255.447C142.678 255.447 131.414 274.468 135.094 274.023C138.775 273.578 151.405 254.307 151.405 254.307C151.405 254.307 170.029 250.859 173.012 261.871C175.996 272.883 171.172 278.361 168.412 279.057C165.652 279.752 147.975 279.501 148.421 281.81C148.867 284.09 160.828 287.761 167.492 285.703C167.492 285.703 160.131 303.806 150.485 302.889C140.838 301.971 137.854 296.02 131.86 295.547C125.894 295.102 121.516 296.687 124.5 298.3C127.483 299.913 137.604 298.828 142.427 302.916C147.25 307.004 151.154 309.535 142.204 311.37C133.254 313.206 117.167 312.065 113.933 305.169C110.726 298.3 110.726 298.3 110.726 298.3Z" fill="#6B52CA"/>
<path d="M164.48 265.319C164.48 265.319 116.218 280.892 110.726 298.328C110.726 298.328 110.949 306.114 106.126 315.069V318.517C106.126 318.517 111.172 306.837 113.932 305.225C113.932 305.169 103.142 290.069 164.48 265.319Z" fill="#6B52CA"/>
<path d="M106.125 315.041C106.125 315.041 98.6811 326.304 102.919 340.041L104.843 339.541C104.843 339.541 102.975 324.44 106.878 316.821C110.781 309.201 106.125 315.041 106.125 315.041Z" fill="#6B52CA"/>
<path d="M83.321 285.037C83.321 285.037 106.044 272.356 95.4492 255.143C95.4492 255.143 86.9734 244.576 77.8842 241.85C77.8842 241.85 82.7355 267.518 77.8842 268.129C73.0329 268.741 74.5385 239.125 74.5385 239.125C74.5385 239.125 50.6166 227.64 41.2208 228.558C41.2208 228.558 56.0534 253.641 51.2021 253.029C46.3509 252.418 29.706 227.056 29.706 227.056C29.706 227.056 5.17074 222.495 1.23953 237.012C-2.69168 251.5 3.66518 258.758 7.2897 259.676C10.9142 260.593 34.2505 260.287 33.6372 263.291C33.0238 266.322 17.2711 271.133 8.48857 268.435C8.48857 268.435 18.1911 292.295 30.9048 291.099C43.6185 289.904 47.5497 282.034 55.44 281.422C63.3025 280.81 69.0738 282.924 65.1426 285.037C61.2114 287.151 47.8843 285.732 41.5275 291.127C35.1706 296.522 30.0126 299.831 41.8342 302.251C53.6557 304.67 74.8452 303.168 79.0831 294.103C83.321 285.037 83.321 285.037 83.321 285.037Z" fill="#806ECC"/>
<path d="M12.4464 241.543C12.4464 241.543 76.0428 262.093 83.3197 285.035C83.3197 285.035 83.013 295.297 89.3698 307.088V311.621C89.3698 311.621 82.7063 296.215 79.0818 294.101C79.0539 294.101 93.301 274.162 12.4464 241.543Z" fill="#806ECC"/>
<path d="M89.3698 307.088C89.3698 307.088 99.1839 321.938 93.5798 340.041L91.0427 339.374C91.0427 339.374 93.4962 319.463 88.3661 309.424C83.236 299.385 89.3698 307.088 89.3698 307.088Z" fill="#806ECC"/>
<path d="M84.0721 379.251C59.509 379.251 39.5741 359.368 39.5741 334.869H128.57C128.57 359.368 108.635 379.251 84.0721 379.251Z" fill="#806ECC"/>
<path d="M38.961 381.504H129.184C129.184 378.473 126.73 376.026 123.691 376.026H44.4535C41.4145 376.026 38.961 378.473 38.961 381.504Z" fill="#806ECC"/>
<path d="M38.5485 336.219H130.026V334.857H38.5485V336.219Z" fill="#6B52CA"/>
<path d="M204.713 111.037H140.037C137.061 111.037 134.623 108.598 134.623 105.621V43.1811C134.623 40.2044 137.061 37.7656 140.037 37.7656H204.713C207.689 37.7656 210.126 40.2044 210.126 43.1811V105.621C210.126 108.598 207.689 111.037 204.713 111.037Z" fill="#B7AEE3"/>
<path d="M201.916 107.845H142.833C140.108 107.845 137.885 105.621 137.885 102.895V45.8709C137.885 43.1452 140.108 40.9216 142.833 40.9216H201.916C204.641 40.9216 206.864 43.1452 206.864 45.8709V102.931C206.828 105.621 204.605 107.845 201.916 107.845Z" fill="#A396D8"/>
<path d="M170.798 47.6283C170.798 46.7676 171.515 46.0503 172.375 46.0503C173.236 46.0503 173.953 46.7676 173.953 47.6283C173.953 48.4891 173.236 49.2064 172.375 49.2064C171.515 49.2064 170.798 48.4891 170.798 47.6283Z" fill="#462CA9"/>
<path d="M183.417 49.852C183.848 49.0988 184.78 48.8119 185.533 49.2423C186.285 49.6727 186.572 50.6052 186.142 51.3583C185.712 52.1115 184.78 52.3984 184.027 51.968C183.274 51.5376 182.987 50.6052 183.417 49.852Z" fill="#462CA9"/>
<path d="M194.244 58.4235C194.961 57.9572 195.929 58.1724 196.395 58.8897C196.861 59.607 196.646 60.5753 195.929 61.0416C195.212 61.5078 194.244 61.2926 193.778 60.5753C193.312 59.8581 193.491 58.8897 194.244 58.4235Z" fill="#462CA9"/>
<path d="M199.586 71.7292C200.447 71.7292 201.164 72.4465 201.164 73.3073C201.164 74.168 200.447 74.8853 199.586 74.8853C198.726 74.8853 198.009 74.168 198.009 73.3073C198.009 72.4107 198.726 71.7292 199.586 71.7292Z" fill="#462CA9"/>
<path d="M196.861 87.1509C197.471 87.7606 197.471 88.7648 196.861 89.3745C196.252 89.9841 195.248 89.9841 194.639 89.3745C194.029 88.7648 194.029 87.7606 194.639 87.1509C195.248 86.5412 196.252 86.5412 196.861 87.1509Z" fill="#462CA9"/>
<path d="M187.038 97.0137C187.648 97.6234 187.648 98.6276 187.038 99.2372C186.429 99.8469 185.425 99.8469 184.815 99.2372C184.206 98.6276 184.206 97.6234 184.815 97.0137C185.425 96.404 186.429 96.404 187.038 97.0137Z" fill="#462CA9"/>
<path d="M170.798 102.07C170.798 101.21 171.515 100.492 172.375 100.492C173.235 100.492 173.952 101.21 173.952 102.07C173.952 102.931 173.235 103.648 172.375 103.648C171.515 103.648 170.798 102.931 170.798 102.07Z" fill="#462CA9"/>
<path d="M161.261 49.852C160.83 49.0988 159.898 48.8119 159.145 49.2423C158.393 49.6727 158.106 50.6052 158.536 51.3583C158.966 52.1115 159.898 52.3984 160.651 51.968C161.404 51.5376 161.691 50.6052 161.261 49.852Z" fill="#462CA9"/>
<path d="M150.47 58.4235C149.753 57.9572 148.785 58.1724 148.319 58.8897C147.853 59.607 148.068 60.5753 148.785 61.0416C149.502 61.5078 150.47 61.2926 150.936 60.5753C151.402 59.8581 151.187 58.8897 150.47 58.4235Z" fill="#462CA9"/>
<path d="M145.092 71.7292C144.232 71.7292 143.514 72.4465 143.514 73.3073C143.514 74.168 144.232 74.8853 145.092 74.8853C145.952 74.8853 146.669 74.168 146.669 73.3073C146.669 72.4107 145.952 71.7292 145.092 71.7292Z" fill="#462CA9"/>
<path d="M147.817 87.1509C147.207 87.7606 147.207 88.7648 147.817 89.3745C148.426 89.9842 149.43 89.9842 150.039 89.3745C150.649 88.7648 150.649 87.7606 150.039 87.1509C149.43 86.5412 148.426 86.5412 147.817 87.1509Z" fill="#462CA9"/>
<path d="M157.64 97.0137C157.03 97.6234 157.03 98.6276 157.64 99.2373C158.249 99.847 159.253 99.847 159.863 99.2373C160.472 98.6276 160.472 97.6234 159.863 97.0137C159.253 96.404 158.249 96.404 157.64 97.0137Z" fill="#462CA9"/>
<path d="M171.945 73.2714C171.945 72.4106 172.662 71.6934 173.523 71.6934C174.383 71.6934 175.1 72.4106 175.1 73.2714C175.1 74.1321 174.383 74.8494 173.523 74.8494C172.662 74.8494 171.945 74.168 171.945 73.2714Z" fill="#462CA9"/>
<path d="M173.739 53.7612H173.308V73.3073H173.739V53.7612Z" fill="#462CA9"/>
<path d="M183.26 64.6162L172.91 72.7439L173.707 73.7595L184.057 65.6318L183.26 64.6162Z" fill="#462CA9"/>
<path d="M420.801 387.599C447.587 387.599 469.301 366.976 469.301 341.536C469.301 316.096 447.587 295.473 420.801 295.473C394.015 295.473 372.301 316.096 372.301 341.536C372.301 366.976 394.015 387.599 420.801 387.599Z" fill="#282144"/>
<path d="M580.429 338.338C580.429 338.338 580.429 346.731 580.429 350.928C580.429 355.125 577.974 356.424 574.918 356.424H571.912C565.298 374.559 546.961 387.599 525.416 387.599C498.261 387.599 476.265 366.965 476.265 341.536C476.265 316.106 499.213 284.032 526.318 284.032C552.322 284.032 576.772 293.224 578.526 317.155L580.429 338.338Z" fill="#282144"/>
<path d="M345.196 334.791V363.368C345.196 368.214 340.887 367.515 337.53 367.515H330.666C321.948 379.705 307.218 387.649 290.584 387.649C267.787 387.649 248.647 372.661 243.487 352.527C242.585 349.03 242.084 345.333 242.084 341.586C242.084 324.599 251.754 309.761 266.133 301.768C269.44 297.171 272.196 293.524 272.797 293.374C274.4 293.025 293.69 286.43 294.341 285.681C294.942 284.881 305.915 284.082 305.915 284.082L330.215 293.574L343.392 317.305C343.392 317.305 345.196 329.046 345.196 334.791Z" fill="#282144"/>
<path d="M224.999 334.791V363.368C224.999 368.214 220.79 367.515 217.533 367.515H210.82C202.302 379.705 187.973 387.649 171.689 387.649C149.443 387.649 130.755 372.661 125.695 352.527C124.793 349.03 124.342 345.333 124.342 341.586C124.342 324.599 133.761 309.761 147.84 301.768C151.047 297.171 153.752 293.524 154.303 293.374C155.857 293.025 174.695 286.43 175.297 285.681C175.898 284.881 186.57 284.082 186.57 284.082L210.268 293.574L223.145 317.305C223.245 317.305 224.999 329.046 224.999 334.791Z" fill="#282144"/>
<path d="M101.094 326.548V328.496L101.996 333.042L102.096 333.492C102.096 333.492 103.449 339.587 103.198 340.936V340.986C102.897 342.485 99.741 350.179 99.8913 351.028C99.9915 351.927 100.893 352.477 100.893 352.477H115.974H205.759H210.018C210.018 352.477 242.735 352.477 253.106 352.477C263.478 352.477 261.774 344.483 261.774 341.835C261.774 339.188 264.43 287.879 302.859 287.879C341.288 287.879 345.596 331.843 345.596 341.486C345.596 351.128 345.596 352.477 345.596 352.477C345.596 352.477 479.872 352.477 487.388 352.477C494.903 352.477 497.258 344.333 497.258 329.845C497.258 315.357 512.79 288.278 538.944 288.278C565.098 288.278 576.772 316.156 578.425 323.001C580.078 329.845 580.429 338.338 580.429 338.338C580.429 338.338 584.437 333.192 586.441 332.193C588.446 331.194 593.456 331.044 594.608 329.845C595.761 328.696 600.47 316.006 601.472 308.712C601.823 306.214 602.074 303.666 602.124 301.318C602.274 296.672 601.723 292.725 599.969 291.076C598.566 289.727 597.865 289.128 597.564 288.828C597.314 288.578 597.314 288.578 597.314 288.578C597.314 288.578 595.811 277.487 594.308 271.742C592.805 265.996 590.65 260.101 590.65 260.101C590.65 260.101 592.805 257.453 593.055 255.205C593.155 254.455 593.155 253.806 593.105 253.356C593.005 252.457 592.805 252.057 592.805 252.057L584.137 237.419L567.202 230.325L551.67 210.141L547.411 204.595C547.411 204.595 547.862 196.902 547.962 193.005C547.962 192.805 547.962 192.605 547.962 192.455C547.762 189.008 544.555 187.859 533.032 186.81C520.857 185.661 435.932 174.42 361.529 180.415C336.929 182.413 317.238 186.16 301.105 190.657C300.955 190.707 300.804 190.707 300.704 190.757C300.403 190.856 300.153 190.906 299.852 191.006C299.852 191.006 299.802 191.006 299.752 191.006C267.937 200.099 250.351 212.04 236.823 218.784C216.331 228.976 206.961 236.32 206.961 236.32C206.961 236.32 200.498 237.619 191.379 239.517C182.261 241.466 170.537 244.064 159.965 246.712C140.876 251.508 126.095 259.102 119.682 263.998L122.638 268.644L122.488 276.937L120.935 282.583L113.469 290.127H105.202C105.152 290.627 105.102 290.876 105.102 290.876C105.102 290.876 102.597 297.571 101.495 302.717C101.394 303.216 101.294 303.716 101.194 304.166C100.342 309.411 99.8913 317.555 99.8913 317.555L100.994 318.454V319.104L101.094 326.548Z" fill="#F6F6FA"/>
<path d="M235.62 285.88L235.37 285.481L253.808 273.84C254.71 273.241 255.16 272.241 255.11 271.192V270.942H255.361V271.192H255.611C255.712 272.441 255.16 273.59 254.108 274.29L235.62 285.88Z" fill="#F0575C"/>
<path d="M325.856 240.167L325.656 239.717C325.706 239.667 333.021 236.62 346.148 224.929C352.16 219.583 357.822 214.288 363.032 209.142L363.383 209.492C358.172 214.637 352.461 219.983 346.498 225.329C333.271 237.069 325.906 240.117 325.856 240.167Z" fill="#F0575C"/>
<path d="M325.706 240.167C325.606 240.167 312.829 238.069 278.108 235.021C266.835 234.022 254.91 233.472 242.585 233.422V232.923C254.91 232.973 266.885 233.522 278.158 234.522C312.879 237.619 325.656 239.667 325.756 239.667L325.706 240.167Z" fill="#F0575C"/>
<path d="M325.756 240.167H325.706C325.605 240.167 313.981 238.269 282.918 235.421L282.968 234.921C312.779 237.669 324.703 239.468 325.706 239.667C326.307 239.418 330.916 237.319 338.933 230.974L339.233 231.374C330.616 238.169 325.856 240.167 325.806 240.167H325.756Z" fill="#F0575C"/>
<path d="M462.286 234.871V234.621C462.286 234.571 461.585 227.127 457.927 211.69L458.428 211.59C461.685 225.529 462.587 232.973 462.737 234.372C465.643 234.222 494.753 232.873 509.083 230.375C517.35 228.926 522.36 226.628 523.963 223.63C524.715 222.231 524.665 220.733 523.913 219.084C523.111 217.285 519.704 213.488 514.193 209.242L514.494 208.842C520.055 213.139 523.512 217.035 524.364 218.884C525.166 220.683 525.216 222.381 524.414 223.88C522.761 227.027 517.6 229.426 509.183 230.874C494.152 233.522 462.888 234.871 462.537 234.871H462.286Z" fill="#F0575C"/>
<path d="M364.034 242.715C361.028 242.715 358.773 241.866 357.471 240.167C356.068 238.368 355.867 235.721 356.92 232.523C358.423 227.777 363.934 220.982 369.295 214.388C371.099 212.139 373.003 209.841 374.656 207.643L375.057 207.943C373.404 210.141 371.5 212.439 369.696 214.687C364.385 221.232 358.874 228.027 357.421 232.673C356.469 235.721 356.619 238.219 357.922 239.867C359.224 241.516 361.629 242.315 364.886 242.165C367.842 242.016 372.351 241.516 378.614 240.866C386.881 239.967 398.255 238.718 413.336 237.519C437.385 235.571 448.708 234.821 450.512 234.721C450.312 232.723 449.059 219.683 447.356 209.192C447.055 207.393 446.754 205.595 446.404 203.896L446.905 203.796C447.255 205.545 447.606 207.343 447.907 209.142C449.71 220.533 451.063 234.821 451.063 234.971V235.221H450.813C450.712 235.221 439.64 235.92 413.386 238.069C398.305 239.318 386.981 240.517 378.664 241.416C372.401 242.115 367.892 242.565 364.936 242.715C364.585 242.665 364.285 242.715 364.034 242.715Z" fill="#F0575C"/>
<path d="M364.034 242.715C361.028 242.715 358.773 241.865 357.471 240.167C356.068 238.368 355.867 235.72 356.92 232.523C357.571 230.425 359.124 227.677 361.629 224.18L362.03 224.479C359.575 227.927 358.072 230.575 357.421 232.673C356.469 235.72 356.619 238.218 357.922 239.867C359.224 241.516 361.629 242.315 364.886 242.165C367.842 242.015 372.351 241.516 378.614 240.866C380.769 240.616 383.174 240.367 385.779 240.117L385.829 240.616C383.224 240.916 380.819 241.166 378.664 241.366C372.401 242.065 367.892 242.515 364.886 242.665C364.585 242.665 364.285 242.715 364.034 242.715Z" fill="#F0575C"/>
<path d="M364.034 242.715C361.028 242.715 358.773 241.865 357.471 240.167C356.068 238.368 355.867 235.72 356.92 232.523C357.07 232.023 357.27 231.524 357.521 230.974L357.972 231.174C357.721 231.674 357.571 232.173 357.371 232.673C356.419 235.72 356.569 238.218 357.872 239.867C359.174 241.516 361.579 242.315 364.836 242.165C367.792 242.015 372.301 241.516 378.564 240.866C380.719 240.616 383.073 240.367 385.679 240.117C387.683 239.417 389.086 238.718 389.887 238.069C392.793 235.67 393.244 232.673 393.144 230.525L393.645 230.475C393.795 232.723 393.294 235.87 390.188 238.418C389.336 239.118 387.883 239.817 385.779 240.567H385.729C383.124 240.866 380.719 241.116 378.564 241.316C372.301 242.015 367.792 242.465 364.786 242.615C364.585 242.665 364.285 242.715 364.034 242.715Z" fill="#F0575C"/>
<path d="M462.537 234.871V234.372C462.838 234.372 494.102 233.023 509.083 230.375C516.949 228.976 521.859 226.878 523.713 224.08L524.114 224.38C522.16 227.277 517.149 229.476 509.183 230.874C494.152 233.472 462.838 234.821 462.537 234.871Z" fill="#F0575C"/>
<path d="M382.673 240.916L382.623 240.417C383.625 240.317 384.627 240.217 385.679 240.067C395.249 239.068 404.017 238.218 413.236 237.469C437.285 235.521 448.608 234.771 450.412 234.671C450.362 234.072 450.212 232.373 449.961 230.025L450.462 229.975C450.763 232.973 450.963 234.871 450.963 234.871V235.121H450.713C450.612 235.121 439.54 235.82 413.286 237.969C404.067 238.718 395.299 239.517 385.779 240.567C384.677 240.716 383.675 240.816 382.673 240.916Z" fill="#F0575C"/>
<path d="M539.896 231.174C524.965 235.521 460.633 238.618 416.643 243.514C372.652 248.41 330.866 254.206 299.752 265.646C268.638 277.087 261.323 291.526 258.167 299.519C255.01 307.513 254.91 320.452 253.357 323.5C250.601 328.696 214.427 324.799 208.114 325.199C201.801 325.648 198.695 320.153 192.231 312.359C185.868 304.565 184.716 298.57 179.605 298.57H123.54C119.031 298.57 117.277 309.461 115.574 315.656C113.92 321.851 113.519 327.197 110.613 330.145C109.311 331.444 105.252 329.345 101.094 326.598L100.994 319.104V318.454L99.8914 317.555C99.8914 317.555 100.342 309.461 101.244 304.216C101.344 303.766 101.445 303.266 101.545 302.767L109.261 298.82C109.261 298.82 116.977 289.577 118.179 288.378C119.381 287.179 121.937 286.979 128.851 286.979H188.975C194.987 286.979 197.292 291.726 201.5 294.623C205.709 297.521 207.262 299.969 209.817 299.969C212.373 299.969 232.364 300.768 235.52 300.918C238.677 301.068 246.643 290.676 252.355 285.78C258.067 280.884 265.181 273.34 266.534 270.692C267.887 268.045 266.384 266.446 263.778 263.798C261.173 261.15 258.267 259.601 258.267 259.601C258.267 259.601 289.431 248.26 316.837 244.513C344.244 240.766 441.995 229.575 441.995 229.575C461.735 228.726 467.146 194.553 467.146 194.553L479.422 190.407L547.963 192.555C547.963 192.755 547.963 192.955 547.963 193.105C547.862 197.001 547.411 204.695 547.411 204.695L551.67 210.241C550.518 210.79 549.716 211.19 549.716 211.19C549.716 211.19 553.073 215.387 553.724 217.385C554.376 219.384 554.827 226.828 539.896 231.174Z" fill="#E5E2F1"/>
<path d="M515.796 232.623C500.415 233.472 475.864 236.27 424.96 240.167C374.005 244.064 372.251 245.263 365.137 245.513C358.022 245.713 350.657 245.313 341.538 244.164C332.419 243.065 291.635 236.17 257.565 235.071C223.495 233.972 207.012 236.42 207.012 236.42C207.012 236.42 207.913 235.721 209.817 234.422C213.976 231.574 222.794 225.928 236.873 218.884C249.649 212.489 266.133 201.448 294.842 192.555C296.445 192.056 298.099 191.556 299.802 191.056C299.852 191.056 299.852 191.056 299.902 191.056C300.153 191.006 300.454 190.906 300.754 190.807C300.854 190.757 301.005 190.757 301.155 190.707C310.975 188.209 373.804 185.361 410.48 185.861C447.706 186.36 484.783 189.208 503.822 195.503C522.861 201.848 535.888 214.637 538.242 220.133C540.547 225.629 531.178 231.774 515.796 232.623Z" fill="#3E3465"/>
<path d="M382.523 188.309C382.523 188.309 376.561 196.053 363.183 209.292C358.474 213.938 352.862 219.234 346.299 225.129C333.021 236.97 325.756 239.968 325.756 239.968C325.756 239.968 313.281 237.919 278.159 234.822C265.683 233.723 253.408 233.273 242.636 233.223C227.454 233.123 215.229 233.772 209.818 234.422C213.977 231.574 222.795 225.929 236.874 218.884C249.65 212.49 266.134 201.448 294.843 192.556C303.26 191.606 314.283 190.457 326.959 189.508C356.319 187.26 382.523 188.309 382.523 188.309Z" fill="#B9CAD2"/>
<path d="M363.183 209.292C358.473 213.938 352.861 219.234 346.298 225.129C343.642 227.477 341.288 229.475 339.133 231.174C330.415 238.069 325.806 239.917 325.806 239.917C325.806 239.917 314.432 238.069 283.018 235.171C281.465 235.021 279.861 234.871 278.208 234.721C265.732 233.622 253.457 233.172 242.685 233.123C242.685 233.123 269.891 213.738 301.155 209.242C332.269 204.795 363.183 209.292 363.183 209.292Z" fill="#748A97"/>
<path d="M339.083 231.174C330.365 238.068 325.756 239.917 325.756 239.917C325.756 239.917 314.383 238.068 282.968 235.171C282.968 235.171 307.919 231.574 320.245 231.224C327.259 231.074 334.324 231.124 339.083 231.174Z" fill="#95A3AC"/>
<path d="M450.662 234.921C450.662 234.921 439.79 235.571 413.235 237.769C386.681 239.967 371.65 242.115 364.786 242.415C357.922 242.765 355.116 238.918 357.12 232.573C359.124 226.228 368.293 216.236 374.806 207.743C381.32 199.25 393.846 188.009 393.846 188.009L442.596 189.608C442.596 189.608 444.7 195.203 446.454 203.746C446.804 205.395 447.105 207.193 447.456 209.092C449.36 220.633 450.662 234.921 450.662 234.921Z" fill="#B9CAD2"/>
<path d="M450.663 234.921C450.663 234.921 439.79 235.571 413.236 237.769C402.113 238.668 393.044 239.568 385.679 240.367C387.433 239.767 389.086 239.068 389.988 238.269C392.794 235.97 393.495 233.023 393.345 230.525C390.539 230.525 386.731 230.525 381.971 230.575C372.602 230.725 361.329 230.974 357.671 231.074C358.573 229.076 359.976 226.778 361.73 224.33C365.488 219.084 370.648 213.139 374.757 207.743C374.757 207.743 393.796 203.896 428.717 203.596C434.479 203.546 440.442 203.596 446.454 203.746C446.805 205.395 447.105 207.193 447.456 209.092C448.608 216.386 449.61 224.829 450.111 230.025C450.512 233.023 450.663 234.921 450.663 234.921Z" fill="#748A97"/>
<path d="M450.162 230.025C450.462 233.023 450.663 234.921 450.663 234.921C450.663 234.921 439.79 235.571 413.236 237.769C402.113 238.668 393.044 239.567 385.679 240.367C387.433 239.767 389.086 239.068 389.988 238.269C392.794 235.97 393.495 233.023 393.345 230.525C393.395 230.525 422.755 230.625 450.162 230.025Z" fill="#95A3AC"/>
<path d="M509.133 230.625C493.951 233.273 462.537 234.622 462.537 234.622C462.537 234.622 461.885 227.277 458.178 211.64C457.527 208.842 456.875 206.344 456.224 204.146C453.268 194.054 450.662 190.007 450.662 190.007C450.662 190.007 471.205 190.657 489.893 196.352C499.763 199.35 508.281 204.396 514.343 209.042C519.754 213.189 523.262 217.086 524.113 218.984C526.017 222.931 524.314 227.927 509.133 230.625Z" fill="#B9CAD2"/>
<path d="M523.913 224.23C522.26 226.728 518.001 229.076 509.133 230.625C493.952 233.273 462.537 234.622 462.537 234.622C462.537 234.622 462.387 233.023 461.886 229.725C461.285 225.978 460.182 219.983 458.228 211.64C457.577 208.842 456.926 206.344 456.274 204.146C479.121 205.095 501.517 207.144 514.444 209.042C519.855 213.189 523.362 217.086 524.214 218.984C524.915 220.583 525.066 222.431 523.913 224.23Z" fill="#748A97"/>
<path d="M523.913 224.23C522.26 226.728 518.001 229.076 509.133 230.625C493.952 233.272 462.537 234.621 462.537 234.621C462.537 234.621 462.387 233.023 461.886 229.725C468.549 229.525 474.812 229.276 480.173 228.926C501.818 227.627 517.35 225.329 523.913 224.23Z" fill="#95A3AC"/>
<path d="M390.039 238.268C389.087 239.018 387.483 239.717 385.73 240.367C375.559 241.466 368.795 242.265 364.837 242.465C357.973 242.815 355.167 238.968 357.171 232.623C357.321 232.123 357.522 231.624 357.772 231.124C358.674 229.126 360.077 226.828 361.831 224.38C363.033 224.08 364.085 223.78 364.837 223.63C367.743 223.031 378.715 221.982 386.03 223.031C393.395 224.13 393.145 226.628 393.395 230.425C393.395 230.475 393.395 230.475 393.395 230.525C393.546 233.023 392.844 235.97 390.039 238.268Z" fill="#F7F6F1"/>
<path d="M390.038 238.268C389.086 239.018 387.483 239.717 385.729 240.367C384.677 240.467 383.625 240.567 382.673 240.716C374.205 241.616 368.393 242.315 364.836 242.465C357.972 242.815 355.166 238.968 357.17 232.623C357.22 232.523 357.27 232.373 357.321 232.273C357.371 232.123 357.421 232.023 357.471 231.874C357.521 231.724 357.571 231.624 357.621 231.474C357.671 231.324 357.721 231.224 357.771 231.074C361.429 230.974 372.702 230.724 382.071 230.575C386.781 230.525 390.589 230.475 393.445 230.525C393.545 233.023 392.844 235.97 390.038 238.268Z" fill="#DAD9D4"/>
<path d="M110.564 327.947C110.364 329.945 110.213 332.593 109.362 332.943C108.811 333.143 104.903 333.093 102.047 333.043L101.145 328.496L101.045 319.054L102.247 318.404C102.247 318.404 109.462 320.852 109.813 321.602C110.163 322.401 110.815 325.948 110.564 327.947Z" fill="#282144"/>
<path d="M106.455 331.644H99.8916C99.2903 331.644 98.7893 331.144 98.7893 330.544V329.745C98.7893 329.146 99.2903 328.646 99.8916 328.646H106.455C107.056 328.646 107.557 329.146 107.557 329.745V330.544C107.557 331.144 107.056 331.644 106.455 331.644Z" fill="#FE851D"/>
<path d="M201.45 321.552L229.708 317.355C229.708 317.355 234.919 321.452 236.172 326.448C237.374 331.444 235.821 332.992 235.821 332.992H207.563C207.563 332.992 204.356 330.794 202.753 327.996C201.2 325.199 201.45 321.552 201.45 321.552Z" fill="#282144"/>
<path d="M232.163 331.644H209.266C208.665 331.644 208.164 331.144 208.164 330.544V329.745C208.164 329.146 208.665 328.646 209.266 328.646H232.163C232.765 328.646 233.266 329.146 233.266 329.745V330.544C233.266 331.144 232.765 331.644 232.163 331.644Z" fill="#FE851D"/>
<path d="M174.795 310.611C172.691 310.76 117.578 350.928 117.578 350.928L115.975 352.527H100.894C100.894 352.527 99.9917 351.977 99.8915 351.078C99.7913 350.179 102.948 342.485 103.198 341.036H107.557C109.01 341.036 111.365 338.039 112.868 334.791C114.371 331.544 120.384 306.564 121.536 303.666C122.688 300.768 124.893 300.918 132.158 300.918H172.641C175.898 300.918 179.205 304.515 180.507 306.264C181.81 307.963 176.85 310.461 174.795 310.611Z" fill="#E5E2F1"/>
<path d="M602.124 301.318C602.074 303.666 601.823 306.214 601.473 308.712C600.471 316.056 595.811 328.696 594.608 329.845C593.456 330.994 588.446 331.194 586.442 332.193C584.438 333.192 580.429 338.338 580.429 338.338C580.429 338.338 580.079 329.845 578.425 323C576.772 316.156 565.048 288.278 538.944 288.278C512.79 288.278 497.258 315.357 497.258 329.845C497.258 344.333 494.904 352.477 487.388 352.477C479.873 352.477 345.597 352.477 345.597 352.477C345.597 352.477 345.597 351.128 345.597 341.486C345.597 331.843 341.238 287.879 302.859 287.879C264.43 287.879 261.774 339.187 261.774 341.835C261.774 344.483 263.428 352.477 253.106 352.477C242.735 352.477 210.018 352.477 210.018 352.477H205.759L200.548 341.386C200.548 341.386 241.282 341.386 248.447 341.386C255.562 341.386 254.559 330.594 259.269 314.607C263.929 298.62 282.116 278.386 303.711 278.386C325.305 278.386 338.783 294.074 344.544 304.965C350.306 315.856 352.06 325.948 352.361 331.394C352.711 336.839 354.264 341.386 359.575 341.386H479.372C486.486 341.386 487.288 340.387 488.591 336.739C489.943 333.092 490.394 322.001 495.505 309.561C500.615 297.121 515.195 278.686 539.595 278.686C563.996 278.686 576.221 301.218 578.024 303.866C579.828 306.514 581.381 307.763 584.387 307.763C587.394 307.763 593.657 307.113 596.763 305.764C598.817 304.865 600.521 303.366 602.124 301.318Z" fill="#E5E2F1"/>
<path d="M177.401 306.214H132.058C129.102 306.214 126.546 308.213 125.845 311.06L115.574 352.527H211.421L182.712 309.062C181.559 307.263 179.555 306.214 177.401 306.214Z" fill="#282144"/>
<path d="M200.999 358.622H129.753C127.298 358.622 125.093 357.073 124.292 354.725L123.54 352.527H207.212L206.36 354.875C205.559 357.123 203.404 358.622 200.999 358.622Z" fill="#636E8E"/>
<path d="M180.257 313.408H134.813C132.358 313.408 130.154 315.107 129.603 317.505L120.935 352.527H209.016L184.766 315.856C183.764 314.308 182.06 313.408 180.257 313.408Z" fill="#636E8E"/>
<path d="M177.752 333.842H133.46C129.653 333.842 126.396 336.49 125.594 340.187L123.039 352.527H193.384L184.566 337.789C183.163 335.341 180.557 333.842 177.752 333.842Z" fill="#F7F6F1"/>
<path d="M597.564 288.828C593.757 290.626 589.398 292.475 586.792 292.875C581.431 293.724 580.429 292.025 576.12 285.031C571.761 278.036 563.444 268.544 533.182 268.544C502.97 268.544 491.446 303.666 490.494 312.009C489.542 320.353 487.087 324.849 482.728 324.849H356.519C352.06 324.849 352.811 315.007 352.31 309.361C351.809 303.716 349.304 298.37 341.438 286.03C333.572 273.69 324.403 274.04 327.76 270.393C331.117 266.746 354.465 264.048 410.931 258.752C460.433 254.056 544.806 250.808 571.31 250.209C575.018 250.109 577.623 250.109 578.776 250.109L593.105 253.306C593.155 253.806 593.155 254.405 593.055 255.155C592.805 257.403 590.65 260.051 590.65 260.051C590.65 260.051 592.805 265.946 594.308 271.692C595.811 277.437 597.314 288.528 597.314 288.528C597.314 288.528 597.314 288.578 597.564 288.828Z" fill="#E5E2F1"/>
<path d="M588.797 245.763L583.937 237.569L567.954 230.874L568.154 230.425L584.287 237.169L589.247 245.513L588.797 245.763Z" fill="#F0575C"/>
<path d="M593.055 255.155C592.805 257.403 590.65 260.051 590.65 260.051L582.784 260.351C582.784 260.351 576.872 254.905 571.311 250.159C570.759 249.659 570.158 249.21 569.607 248.71C563.595 243.714 560.939 241.716 562.092 238.718C563.244 235.72 567.202 230.225 567.202 230.225L568.104 230.575L584.187 237.269L589.097 245.563L592.855 251.907C592.855 251.907 593.055 252.307 593.155 253.206C593.155 253.806 593.155 254.405 593.055 255.155Z" fill="#F15A23"/>
<path d="M589.048 245.663L571.261 246.512C571.261 246.512 566.852 243.514 565.099 241.616C563.345 239.717 564.597 238.019 565.099 236.22C565.6 234.372 568.055 230.675 568.055 230.675L584.138 237.369L589.048 245.663Z" fill="#F8B173"/>
<path d="M361.529 338.188C361.279 338.188 361.028 338.038 360.878 337.839C360.628 337.439 354.515 327.497 354.515 311.859C354.515 306.913 354.565 300.519 354.615 293.724C354.715 279.535 354.866 263.398 354.515 257.653C354.064 249.659 349.555 246.362 349.505 246.312C349.154 246.062 349.104 245.612 349.304 245.263C349.555 244.913 350.006 244.863 350.356 245.063C350.557 245.213 355.517 248.81 356.018 257.553C356.369 263.398 356.218 279.485 356.118 293.724C356.068 300.469 356.018 306.863 356.018 311.809C356.018 327.047 362.081 336.939 362.131 337.039C362.331 337.389 362.231 337.839 361.88 338.088C361.83 338.138 361.68 338.188 361.529 338.188Z" fill="#B1B3AE"/>
<path d="M459.38 339.038C458.979 339.038 458.679 338.738 458.629 338.338C458.629 338.189 457.476 321.352 459.23 303.466L459.43 301.218C461.084 284.282 462.687 268.295 461.084 255.355C459.531 242.565 455.923 240.667 455.873 240.617C455.522 240.417 455.322 240.017 455.522 239.618C455.673 239.268 456.124 239.068 456.474 239.218C456.925 239.418 460.883 241.466 462.587 255.155C464.19 268.295 462.587 284.332 460.933 301.368L460.733 303.616C458.979 321.402 460.132 338.089 460.132 338.238C460.182 338.638 459.831 338.988 459.43 339.038C459.38 339.038 459.38 339.038 459.38 339.038Z" fill="#B1B3AE"/>
<path d="M526.318 269.943C526.118 269.943 525.917 269.843 525.767 269.693C525.467 269.394 525.517 268.944 525.767 268.644C525.917 268.494 540.748 254.306 541.8 245.413C542.852 236.72 536.79 232.623 536.489 232.473C536.138 232.223 536.038 231.774 536.289 231.424C536.539 231.074 536.99 230.974 537.341 231.224C537.642 231.424 544.456 235.97 543.303 245.613C542.151 255.055 527.421 269.144 526.819 269.743C526.669 269.893 526.519 269.943 526.318 269.943Z" fill="#B1B3AE"/>
<path d="M261.624 272.941L235.72 290.577H210.669L197.191 282.583H120.934L113.469 290.127H105.202C105.302 289.427 105.453 288.278 105.703 286.929C106.054 284.981 106.655 282.633 107.457 280.335C108.96 276.138 111.716 271.941 115.573 267.895C116.325 267.095 117.077 266.346 117.928 265.597C118.429 265.147 119.031 264.647 119.682 264.098L123.54 266.796H207.212L250.651 257.553C252.004 257.253 253.357 257.653 254.359 258.552L262.125 265.547C264.429 267.595 264.179 271.242 261.624 272.941Z" fill="#3E3465"/>
<path d="M198.644 273.59H124.993C124.392 273.59 123.891 273.091 123.891 272.491V271.692C123.891 271.092 124.392 270.593 124.993 270.593H198.644C199.246 270.593 199.747 271.092 199.747 271.692V272.491C199.747 273.091 199.246 273.59 198.644 273.59Z" fill="#677290"/>
<path d="M195.438 278.486H125.494C124.893 278.486 124.392 277.987 124.392 277.387V276.588C124.392 275.988 124.893 275.489 125.494 275.489H195.438C196.039 275.489 196.54 275.988 196.54 276.588V277.387C196.54 277.987 196.039 278.486 195.438 278.486Z" fill="#677290"/>
<path d="M253.908 274.04L235.47 285.68L233.466 286.929H210.419L202.753 282.383C201.45 281.634 201.049 279.935 201.851 278.686L207.212 270.293L245.09 262.699C245.992 262.499 246.944 262.749 247.595 263.348L254.259 268.894C254.91 269.493 255.261 270.243 255.311 271.042C255.411 272.241 254.91 273.34 253.908 274.04Z" fill="#B9CAD2"/>
<path d="M253.908 274.04L235.47 285.68H214.878L205.458 280.585C205.458 280.585 206.46 279.336 220.138 276.138C233.666 272.941 254.76 271.192 255.311 271.142C255.411 272.241 254.91 273.34 253.908 274.04Z" fill="#748A97"/>
<path d="M120.935 270.992C120.935 270.992 119.933 279.436 119.482 280.335C119.031 281.234 113.269 286.93 113.269 286.93H105.753C106.104 284.981 106.705 282.633 107.507 280.335C109.01 276.138 111.766 271.942 115.624 267.895H117.628L120.935 270.992Z" fill="#B9CAD2"/>
<path d="M110.413 278.386C110.413 278.386 108.81 281.334 108.459 283.082C108.108 284.881 107.557 285.63 107.557 285.63H112.668L118.029 279.285C118.379 278.386 118.029 278.436 118.029 278.436L110.413 278.386Z" fill="#748A97"/>
<path d="M305.715 297.371C287.427 297.371 272.647 315.457 272.647 337.739C272.647 360.021 287.477 378.106 305.715 378.106C324.002 378.106 338.783 360.021 338.783 337.739C338.833 315.457 324.002 297.371 305.715 297.371ZM305.414 367.815C292.287 367.815 281.615 354.425 281.615 337.939C281.615 321.452 292.287 308.063 305.414 308.063C318.541 308.063 329.213 321.452 329.213 337.939C329.213 354.425 318.541 367.815 305.414 367.815Z" fill="#9A95B1"/>
<path d="M92.0754 382.253H568.254C569.757 382.253 570.96 383.452 570.96 384.951C570.96 386.45 569.757 387.649 568.254 387.649H92.0754C90.5723 387.649 89.3699 386.45 89.3699 384.951C89.3699 383.452 90.5723 382.253 92.0754 382.253Z" fill="#282144"/>
<path d="M581.982 382.253H611.092C612.595 382.253 613.798 383.452 613.798 384.951C613.798 386.45 612.595 387.649 611.092 387.649H581.982C580.479 387.649 579.277 386.45 579.277 384.951C579.277 383.452 580.479 382.253 581.982 382.253Z" fill="#282144"/>
<path d="M583.686 399.689H161.618C160.115 399.689 158.913 398.49 158.913 396.991C158.913 395.492 160.115 394.293 161.618 394.293H583.686C585.189 394.293 586.392 395.492 586.392 396.991C586.392 398.49 585.189 399.689 583.686 399.689Z" fill="#282144"/>
<path d="M148.842 399.689H123.64C122.137 399.689 120.935 398.49 120.935 396.991C120.935 395.492 122.137 394.293 123.64 394.293H148.892C150.395 394.293 151.598 395.492 151.598 396.991C151.548 398.49 150.345 399.689 148.842 399.689Z" fill="#282144"/>
<path d="M305.865 370.912C303.26 370.912 300.704 370.413 298.199 369.513C297.848 369.363 297.648 369.064 297.748 368.714C297.949 367.565 298.299 366.366 298.851 365.117C300.955 360.271 302.358 356.274 302.258 352.577C302.258 352.077 302.207 351.578 302.207 351.128C300.354 350.828 298.65 349.979 297.197 348.58C296.746 349.23 296.345 349.979 295.894 350.828C294.041 354.475 292.237 357.773 288.78 360.571C288.479 360.82 288.229 360.97 287.928 361.12C287.627 361.27 287.227 361.17 287.026 360.92C284.371 357.523 282.317 353.326 281.064 348.83C280.964 348.53 281.114 348.18 281.415 347.981C283.068 346.981 284.822 346.082 286.625 345.433C289.08 344.483 291.636 343.184 293.54 342.135C293.189 340.736 292.988 339.338 292.988 337.839C292.988 336.84 293.089 335.84 293.239 334.891C292.187 334.591 290.684 334.192 288.63 333.792C285.223 333.043 282.417 332.593 280.663 332.293C280.262 332.243 279.962 331.844 280.062 331.444C281.014 325.199 283.319 319.453 286.826 314.807C286.926 314.657 287.126 314.557 287.327 314.507C287.527 314.457 287.728 314.557 287.878 314.657C291.535 317.755 293.64 320.952 294.993 323.101C295.193 323.35 295.343 323.6 295.494 323.85C296.195 324.899 296.897 325.998 297.448 326.848C298.8 325.649 300.304 324.899 301.907 324.599C301.957 323.001 301.857 320.603 301.255 317.505C300.504 313.658 298.951 309.561 297.798 306.814C297.698 306.614 297.698 306.414 297.798 306.214C297.899 306.014 298.049 305.864 298.199 305.814C303.209 303.916 308.671 303.916 313.681 305.864C313.982 305.964 314.182 306.314 314.132 306.614C314.132 306.814 314.132 306.963 314.082 307.163C313.881 311.21 312.128 319.104 310.525 323.051C310.074 324.2 309.573 325.349 309.122 326.448C310.224 327.347 311.226 328.446 311.978 329.795C313.33 328.546 316.387 325.649 318.541 322.801C319.543 321.452 320.345 320.353 320.996 319.354C322.299 317.455 323.201 316.206 324.353 315.207C324.503 315.057 324.704 315.007 324.954 315.007C325.155 315.007 325.355 315.157 325.455 315.307C328.161 319.054 330.165 323.65 331.267 328.496C331.367 328.846 331.167 329.196 330.866 329.346L329.814 329.845C326.157 331.594 322.349 333.342 318.641 334.591C316.737 335.241 315.184 335.491 314.032 335.641C314.132 336.34 314.182 337.089 314.182 337.789C314.182 338.089 314.182 338.338 314.182 338.588C315.535 338.738 317.689 339.138 320.796 340.137C325.054 341.486 328.812 343.384 331.217 344.783C331.518 344.933 331.668 345.283 331.568 345.583C330.566 350.778 328.512 355.674 325.706 359.721C325.555 359.921 325.355 360.021 325.155 360.021C324.954 360.021 324.704 359.971 324.553 359.821C323.702 358.922 322.7 357.623 321.647 355.974C320.896 354.775 320.194 353.676 319.643 352.727C317.689 349.579 316.537 347.631 314.533 346.482C313.731 346.032 313.03 345.633 312.428 345.283C311.877 346.332 311.226 347.281 310.424 348.081C311.226 349.38 312.178 351.378 312.679 354.276L312.829 355.125C313.681 360.321 314.433 364.767 314.282 368.764C314.282 369.064 314.082 369.314 313.781 369.413C311.126 370.413 308.52 370.912 305.865 370.912ZM299.352 368.314C303.66 369.813 308.32 369.763 312.629 368.214C312.679 364.517 311.978 360.271 311.176 355.375L311.026 354.525C310.525 351.478 309.472 349.529 308.671 348.43C308.47 348.13 308.52 347.731 308.771 347.431C309.773 346.482 310.625 345.283 311.226 343.934C311.326 343.734 311.476 343.584 311.677 343.534C311.877 343.484 312.078 343.484 312.278 343.584C313.03 344.034 313.982 344.583 315.084 345.183C317.439 346.532 318.691 348.58 320.746 351.927C321.347 352.877 321.998 353.926 322.75 355.125C323.501 356.324 324.203 357.273 324.854 358.023C327.209 354.475 328.912 350.229 329.864 345.782C327.509 344.483 324.052 342.785 320.194 341.536C316.587 340.387 314.382 340.037 313.18 339.987C312.98 339.987 312.779 339.887 312.679 339.737C312.579 339.587 312.479 339.388 312.529 339.188C312.579 338.738 312.579 338.288 312.579 337.789C312.579 336.89 312.479 335.94 312.328 335.091C312.278 334.891 312.328 334.641 312.479 334.491C312.629 334.342 312.829 334.242 313.03 334.192C314.132 334.092 315.886 333.892 318.09 333.143C321.698 331.943 325.455 330.195 329.063 328.446L329.614 328.196C328.612 324.05 326.908 320.153 324.704 316.856C323.952 317.655 323.201 318.704 322.249 320.103C321.547 321.102 320.746 322.251 319.743 323.6C316.838 327.497 312.479 331.294 312.278 331.444C312.078 331.594 311.877 331.644 311.627 331.594C311.376 331.544 311.226 331.394 311.126 331.194C310.274 329.545 309.122 328.147 307.769 327.197C307.468 326.997 307.368 326.598 307.518 326.298C308.069 325.049 308.621 323.75 309.172 322.401C310.725 318.654 312.428 310.86 312.629 307.013V306.963C308.37 305.415 303.761 305.415 299.502 306.864C300.654 309.661 302.057 313.458 302.759 317.105C303.46 320.752 303.51 323.5 303.41 325.149C303.41 325.499 303.109 325.798 302.759 325.848C300.955 326.048 299.301 326.947 297.899 328.396C297.748 328.546 297.498 328.646 297.297 328.646C297.047 328.646 296.846 328.496 296.746 328.296C296.245 327.497 295.243 325.898 294.341 324.549C294.191 324.3 293.991 324.05 293.84 323.8C292.487 321.752 290.684 319.004 287.627 316.206C284.671 320.353 282.667 325.349 281.715 330.794C283.469 331.094 286.024 331.544 289.03 332.193C291.586 332.743 293.389 333.192 294.441 333.592C294.792 333.742 294.993 334.092 294.942 334.441C294.692 335.491 294.592 336.64 294.592 337.739C294.592 339.288 294.792 340.736 295.243 342.185C295.343 342.535 295.193 342.885 294.892 343.035C292.938 344.134 290.032 345.632 287.277 346.732C285.724 347.331 284.271 348.031 282.818 348.88C283.97 352.727 285.724 356.324 287.928 359.372C287.928 359.372 287.928 359.372 287.978 359.322C291.185 356.674 292.888 353.576 294.692 350.029C295.343 348.73 295.995 347.631 296.646 346.832C296.796 346.682 296.997 346.582 297.197 346.532C297.398 346.532 297.648 346.632 297.798 346.782C299.301 348.43 301.105 349.429 303.109 349.579C303.51 349.629 303.761 349.929 303.811 350.279C303.861 350.928 303.911 351.628 303.911 352.377C304.011 356.374 302.608 360.521 300.404 365.567C299.802 366.566 299.502 367.465 299.352 368.314Z" fill="#FEFEFC"/>
<path d="M302.408 344.933C305.673 344.933 308.32 341.801 308.32 337.938C308.32 334.076 305.673 330.944 302.408 330.944C299.143 330.944 296.496 334.076 296.496 337.938C296.496 341.801 299.143 344.933 302.408 344.933Z" fill="#FEFEFC"/>
<path d="M540.197 297.371C521.909 297.371 507.129 315.457 507.129 337.739C507.129 360.021 521.959 378.106 540.197 378.106C558.484 378.106 573.265 360.021 573.265 337.739C573.315 315.457 558.484 297.371 540.197 297.371ZM539.896 367.815C526.769 367.815 516.097 354.425 516.097 337.939C516.097 321.452 526.769 308.063 539.896 308.063C553.023 308.063 563.695 321.452 563.695 337.939C563.695 354.425 553.023 367.815 539.896 367.815Z" fill="#9A95B1"/>
<path d="M540.347 370.912C537.741 370.912 535.186 370.413 532.681 369.513C532.33 369.363 532.13 369.064 532.23 368.714C532.431 367.565 532.781 366.366 533.332 365.117C535.437 360.271 536.84 356.274 536.739 352.577C536.739 352.077 536.689 351.578 536.689 351.128C534.835 350.828 533.132 349.979 531.679 348.58C531.228 349.23 530.827 349.979 530.376 350.828C528.522 354.475 526.719 357.773 523.262 360.571C522.961 360.82 522.711 360.97 522.41 361.12C522.109 361.27 521.708 361.17 521.508 360.92C518.853 357.523 516.798 353.326 515.546 348.83C515.446 348.53 515.596 348.18 515.897 347.981C517.55 346.981 519.304 346.082 521.107 345.433C523.562 344.483 526.118 343.184 528.021 342.135C527.671 340.736 527.47 339.338 527.47 337.839C527.47 336.84 527.571 335.84 527.721 334.891C526.669 334.591 525.166 334.192 523.111 333.792C519.704 333.043 516.899 332.593 515.145 332.293C514.744 332.243 514.444 331.844 514.544 331.444C515.496 325.199 517.8 319.453 521.308 314.807C521.408 314.657 521.608 314.557 521.809 314.507C522.009 314.507 522.209 314.557 522.36 314.657C526.017 317.755 528.122 320.952 529.474 323.101C529.675 323.35 529.825 323.6 529.975 323.85C530.677 324.849 531.378 325.998 531.929 326.848C533.282 325.649 534.785 324.899 536.389 324.599C536.439 323.001 536.339 320.603 535.737 317.505C534.986 313.658 533.433 309.561 532.28 306.814C532.18 306.614 532.18 306.414 532.28 306.214C532.38 306.014 532.531 305.864 532.681 305.814C537.691 303.916 543.153 303.916 548.163 305.864C548.463 305.964 548.664 306.314 548.614 306.614C548.614 306.814 548.614 306.963 548.564 307.163C548.363 311.21 546.61 319.104 545.006 323.051C544.555 324.2 544.054 325.349 543.603 326.448C544.706 327.347 545.708 328.446 546.459 329.795C547.812 328.546 550.868 325.649 553.023 322.801C554.025 321.452 554.827 320.353 555.478 319.354C556.781 317.455 557.682 316.206 558.835 315.207C558.985 315.057 559.186 315.007 559.436 315.007C559.687 315.007 559.837 315.157 559.937 315.307C562.643 319.054 564.647 323.65 565.749 328.496C565.849 328.846 565.649 329.196 565.348 329.346L564.296 329.845C560.639 331.594 556.831 333.342 553.123 334.591C551.219 335.241 549.666 335.491 548.514 335.641C548.614 336.34 548.664 337.089 548.664 337.789C548.664 338.089 548.664 338.338 548.664 338.588C550.017 338.738 552.171 339.138 555.277 340.137C559.536 341.486 563.294 343.384 565.699 344.783C566 344.933 566.15 345.283 566.05 345.583C565.048 350.778 562.993 355.674 560.188 359.721C560.037 359.921 559.837 360.021 559.636 360.021C559.436 360.021 559.186 359.971 559.035 359.821C558.183 358.922 557.181 357.673 556.129 355.974C555.378 354.775 554.676 353.676 554.125 352.727C552.171 349.579 551.019 347.631 549.015 346.482C548.213 346.032 547.512 345.633 546.91 345.283C546.359 346.332 545.708 347.281 544.906 348.081C545.708 349.38 546.66 351.378 547.161 354.276L547.311 355.125C548.163 360.321 548.914 364.767 548.764 368.764C548.764 369.064 548.564 369.314 548.263 369.413C545.608 370.413 543.002 370.912 540.347 370.912ZM533.833 368.314C538.142 369.813 542.802 369.763 547.111 368.214C547.161 364.517 546.459 360.271 545.658 355.375L545.507 354.525C545.006 351.478 543.954 349.529 543.153 348.43C542.952 348.13 543.002 347.731 543.253 347.431C544.255 346.482 545.107 345.283 545.708 343.934C545.808 343.734 545.958 343.584 546.159 343.534C546.359 343.484 546.56 343.484 546.76 343.584C547.512 344.034 548.463 344.583 549.566 345.183C551.921 346.532 553.173 348.58 555.227 351.927C555.829 352.877 556.48 353.926 557.231 355.125C557.983 356.324 558.684 357.273 559.336 358.023C561.691 354.475 563.394 350.229 564.346 345.782C561.991 344.483 558.534 342.785 554.676 341.536C551.069 340.387 548.864 340.037 547.662 339.987C547.461 339.987 547.261 339.887 547.161 339.737C547.01 339.587 546.96 339.388 547.01 339.188C547.061 338.738 547.061 338.288 547.061 337.789C547.061 336.89 546.96 335.94 546.81 335.091C546.76 334.891 546.81 334.641 546.96 334.491C547.111 334.342 547.311 334.242 547.512 334.192C548.614 334.092 550.367 333.892 552.572 333.143C556.179 331.943 559.937 330.195 563.544 328.446L564.046 328.196C563.043 324.05 561.34 320.153 559.135 316.856C558.384 317.655 557.632 318.704 556.68 320.103C555.979 321.102 555.177 322.251 554.175 323.6C551.269 327.497 546.91 331.294 546.71 331.444C546.509 331.594 546.309 331.644 546.059 331.594C545.808 331.544 545.658 331.394 545.557 331.194C544.706 329.545 543.553 328.147 542.201 327.197C541.9 326.997 541.8 326.598 541.95 326.298C542.451 325.099 543.052 323.75 543.603 322.401C545.157 318.654 546.86 310.86 547.061 307.013V306.963C542.802 305.415 538.192 305.415 533.934 306.864C535.086 309.661 536.489 313.458 537.19 317.105C537.892 320.752 537.942 323.5 537.842 325.149C537.842 325.499 537.541 325.798 537.19 325.848C535.387 326.048 533.733 326.947 532.33 328.396C532.18 328.546 531.929 328.646 531.729 328.646C531.479 328.646 531.278 328.496 531.178 328.296C530.677 327.497 529.675 325.898 528.773 324.549C528.623 324.3 528.422 324.05 528.272 323.8C526.919 321.752 525.115 319.004 522.009 316.206C519.053 320.353 517.049 325.349 516.097 330.794C517.851 331.094 520.406 331.544 523.412 332.193C525.967 332.743 527.771 333.192 528.823 333.592C529.174 333.742 529.374 334.092 529.324 334.441C529.074 335.491 528.973 336.64 528.973 337.739C528.973 339.288 529.174 340.736 529.625 342.185C529.725 342.535 529.575 342.885 529.274 343.035C527.32 344.134 524.414 345.632 521.658 346.732C520.105 347.331 518.602 348.031 517.199 348.88C518.352 352.727 520.105 356.324 522.36 359.372C522.36 359.372 522.36 359.372 522.41 359.322C525.616 356.674 527.32 353.576 529.124 350.029C529.775 348.73 530.426 347.631 531.128 346.832C531.278 346.682 531.479 346.582 531.679 346.532C531.929 346.532 532.13 346.632 532.28 346.782C533.783 348.43 535.587 349.429 537.591 349.579C537.992 349.629 538.242 349.929 538.293 350.279C538.343 350.928 538.393 351.628 538.393 352.377C538.493 356.374 537.09 360.521 534.886 365.567C534.284 366.566 533.984 367.465 533.833 368.314Z" fill="#FEFEFC"/>
<path d="M536.89 344.933C540.155 344.933 542.802 341.801 542.802 337.938C542.802 334.076 540.155 330.944 536.89 330.944C533.625 330.944 530.978 334.076 530.978 337.938C530.978 341.801 533.625 344.933 536.89 344.933Z" fill="#FEFEFC"/>
<path d="M323.15 415.45C323.15 415.45 326.239 421.155 328.22 423.452C330.2 425.75 337.884 429.791 337.963 436.526C338.043 443.816 325.051 441.835 319.981 441.518C314.912 441.28 314.516 437.318 312.377 433.198C310.238 429.078 308.099 429.791 307.703 426.384C307.307 423.056 309.763 415.371 309.763 415.371H323.15V415.45Z" fill="#282144"/>
<path d="M245.915 414.737C245.915 414.737 239.657 421.709 233.32 423.215C226.983 424.641 222.547 426.543 222.467 430.583C222.388 434.624 240.766 437.239 247.975 433.198C258.827 427.176 259.936 428.999 261.124 425.988C262.313 422.977 259.699 414.895 259.778 413.944C259.936 412.677 245.915 414.737 245.915 414.737Z" fill="#282144"/>
<path d="M246.628 411.409C246.628 411.409 245.836 414.657 245.915 414.737C246.074 414.816 260.253 416.48 259.778 413.865C259.461 411.726 258.906 409.428 258.906 409.428L246.628 411.409Z" fill="#81807E"/>
<path d="M309.921 413.231C309.921 413.231 309.367 416.321 309.446 416.4C309.525 416.48 323.784 419.015 323.704 416.4C323.625 414.34 322.358 411.963 322.358 411.963L309.921 413.231Z" fill="#81807E"/>
<path d="M259.54 215.701C259.54 215.701 254.391 265.777 251.698 282.891C248.529 302.937 247.499 319.497 246.628 329.877C245.519 342.951 245.281 407.13 244.568 410.934C243.776 414.737 261.679 411.964 261.679 411.964C261.679 411.964 270.472 328.055 273.72 314.189C276.73 301.274 288.058 245.572 290.909 249.058C293.682 252.624 297.167 314.109 299.227 324.251C301.287 334.473 307.545 414.341 307.545 414.341C307.545 414.341 321.724 417.193 325.526 413.944C325.526 413.944 327.269 345.09 325.923 325.915C325.447 318.626 334.478 238.441 322.833 206.193C316.654 189.316 259.54 215.701 259.54 215.701Z" fill="#2D1686"/>
<path d="M307.703 198.586C307.703 198.586 304.297 193.357 300.653 192.723C297.009 192.089 348.974 171.964 348.816 162.693C348.737 155.166 329.963 140.666 329.963 140.666L329.408 142.647C329.883 140.587 325.526 140.27 329.408 142.647C329.012 144.152 323.467 164.832 323.229 174.737C322.992 185.037 323.863 220.455 323.863 220.455L310.08 224.179L266.036 224.575L255.896 220.534C255.896 220.534 257.005 209.124 257.401 201.122C257.639 196.051 258.669 186.939 258.352 178.065C258.352 178.065 258.51 168.715 257.56 164.674C257.481 146.926 256.372 129.256 256.372 129.256C255.738 121.174 255.342 113.647 255.104 106.595C257.084 105.565 259.382 104.377 261.283 103.505C267.066 100.732 275.146 97.0081 280.295 94.6311C283.305 93.2048 286.315 92.254 286.315 92.254C286.315 92.254 306.99 90.2732 308.654 90.3524C309.208 90.3524 311.743 91.3032 315.149 92.571C322.516 95.3442 336.617 101.049 338.914 102.634C342.241 105.011 363.867 162.218 364.184 166.179C364.817 173.31 307.703 198.586 307.703 198.586Z" fill="#E8E5F1"/>
<path d="M257.243 216.81C257.243 216.81 287.503 219.425 314.04 216.81V225.526C314.04 225.526 274.591 229.329 255.896 223.862L257.243 216.81Z" fill="#1D2033"/>
<path d="M254.708 106.595C254.946 113.726 255.263 121.412 255.896 129.652C255.896 129.652 256.451 149.699 257.639 168.715C258.035 171.409 258.193 174.261 258.035 177.034C257.718 180.758 257.322 184.799 256.847 189.078C256.847 189.157 256.847 189.157 256.847 189.237C256.768 190.267 256.609 191.217 256.451 192.247C256.451 192.247 256.451 192.247 256.451 192.327C253.916 213.482 249.559 237.807 247.262 245.176C246.786 246.681 248.45 248.107 249.638 249.217L257.956 254.446C257.956 254.446 261.362 222.99 262.471 212.373C263.58 202.072 266.986 188.286 268.491 174.816C270.393 157.781 273.007 141.062 274.433 131.079C278.156 105.248 283.067 93.6802 283.067 93.6802C280.691 94.314 254.708 106.595 254.708 106.595Z" fill="#4E33B5"/>
<path d="M342.558 160.078C346.122 167.923 310.951 178.778 311.822 180.758C313.803 185.433 317.288 196.764 317.288 196.764C317.288 196.764 368.62 174.341 368.065 168.953C367.669 164.991 345.172 105.645 341.845 103.268C339.944 101.921 325.843 96.8496 318.952 94.0764C317.684 93.601 313.327 92.0163 312.218 91.6201C310.713 93.284 300.574 104.456 297.009 146.688C296.375 153.819 298.276 168.873 299.544 181.234C300.89 194.387 302.396 204.608 303.505 215.621C305.643 237.252 307.228 254.525 307.228 254.525L328.774 244.938C332.26 243.195 338.28 238.679 337.013 234.955C332.022 221.009 324.576 194.545 324.576 182.343C324.576 182.343 328.061 148.589 329.963 142.013C329.883 141.855 338.597 151.283 342.558 160.078Z" fill="#4E33B5"/>
<path d="M307.116 88.0291C306.99 95.2837 292.294 99.3211 292.294 99.3211C292.294 99.3211 286.175 91.9403 287.626 91.2464C288.194 90.994 288.446 89.8585 288.509 88.5968C288.572 87.3983 288.509 86.1366 288.446 85.3165C288.383 84.8118 288.383 84.4964 288.383 84.4964C288.383 84.4964 290.464 82.3515 293.114 79.8282C297.781 75.4123 304.152 69.7348 304.152 72.0058C304.152 72.132 304.152 72.2581 304.089 72.4474C303.016 77.431 307.116 88.0291 307.116 88.0291Z" fill="#FFAE73"/>
<path d="M301.503 77.3679C301.503 77.431 300.872 78.3142 299.8 79.5759C297.529 82.2885 293.303 86.7674 288.572 88.5968C288.635 87.3983 288.572 86.1366 288.509 85.3165C288.005 85.3165 287.563 85.2534 287.058 85.1272C288.383 82.9193 290.275 80.6483 290.275 80.6483L293.24 79.8282L301.503 77.3679Z" fill="#D79573"/>
<path d="M292.414 100.098L288.612 105.248C288.612 105.248 290.83 108.259 294.791 106.041L292.414 100.098Z" fill="#E34208"/>
<path d="M289.642 105.407C289.642 105.407 275.146 161.267 278.156 204.687L283.067 213.245L287.662 204.212C287.662 204.212 288.929 126.483 292.89 105.249L289.642 105.407Z" fill="#E34208"/>
<path d="M288.374 95.2649L292.494 100.019C292.494 100.019 299.069 98.7512 300.97 95.3441C302.871 91.9371 288.374 95.2649 288.374 95.2649Z" fill="#FFAE73"/>
<path d="M287.424 91.1448C287.424 91.1448 287.899 94.7895 292.494 100.098L287.503 106.754L284.81 92.8879L287.424 91.1448Z" fill="#D2CCE7"/>
<path d="M307.307 87.0247C307.307 87.0247 299.148 97.4043 292.494 100.098L295.583 107.705L309.683 90.6694L307.307 87.0247Z" fill="#D2CCE7"/>
<path d="M228.409 172.518C228.409 172.518 222.626 172.122 230.864 170.062C234.667 169.111 239.736 163.882 244.489 157.622C246.074 155.562 247.579 153.423 249.084 151.283C254.946 142.805 259.54 134.644 259.54 134.644C259.54 134.644 276.888 114.281 262.946 105.248C262.946 105.248 257.005 105.09 253.678 106.912C250.351 108.735 243.143 123.71 241.954 126.404C240.766 129.019 227.537 153.66 226.666 154.215C225.794 154.77 224.923 157.543 224.923 157.543L225.319 159.207L228.409 172.518Z" fill="#4E33B5"/>
<path d="M279.486 227.984L293.666 227.984L293.666 217.209L279.486 217.209L279.486 227.984Z" fill="#3A4066"/>
<path d="M305.541 70.9102C304.162 73.8083 302.851 75.9473 302.437 76.7754C302.161 77.3274 301.54 78.2244 300.574 79.1904C297.952 81.9505 293.054 85.5386 288.224 85.4006C287.672 85.4006 287.189 85.3316 286.637 85.1936C284.706 84.7796 282.36 83.8826 281.118 81.5365C271.114 62.6989 278.358 47.3114 278.358 47.3114C278.358 47.3114 305.679 39.8592 309.957 47.7944C312.993 53.3146 308.853 64.079 305.541 70.9102Z" fill="#FFAE73"/>
<path d="M278.358 47.3116C278.358 47.3116 275.805 47.1735 275.184 42.5504C274.563 37.9963 275.805 36.6852 275.805 36.6852C275.805 36.6852 287.12 32.1311 291.122 31.5791C295.192 30.958 305.127 30.406 307.473 32.9591C307.473 32.9591 313.13 31.7171 314.717 40.7563C317.201 55.1778 306.369 69.1162 306.369 69.1162C306.369 69.1162 306.438 59.7319 304.299 58.4899C302.16 57.2479 300.298 60.215 300.298 60.215L295.882 60.974C295.882 60.974 302.574 47.0355 294.571 46.5525C286.568 46.0005 282.98 48.0706 278.358 47.3116Z" fill="#232729"/>
<path d="M300.436 56.4197C300.85 52.2796 308.646 50.6926 308.094 55.0397C307.542 59.3868 303.747 63.527 301.953 63.389C300.229 63.251 300.16 59.5938 300.436 56.4197Z" fill="#FFAE73"/>
<path d="M228.567 190.742H237.36C239.023 191.772 236.885 192.961 236.885 192.961C236.885 192.961 224.289 193.753 223.576 192.961C222.863 192.168 223.576 188.92 223.576 188.92C222.388 186.305 221.279 183.611 220.408 180.917C219.695 178.461 220.408 177.035 220.804 176.48C220.883 176.401 220.962 176.321 221.042 176.242" fill="#FFAE73"/>
<path d="M293.127 177.51L297.801 190.742L307.703 179.728C307.941 179.411 308.099 179.094 308.099 178.698C308.099 177.827 307.386 177.193 306.515 177.193L293.127 177.51Z" fill="#E34208"/>
<path d="M205.515 146.529L228.488 190.742H297.801L293.127 177.51L279.106 143.835C278.631 142.647 277.443 141.854 276.175 141.854H208.367C207.813 141.854 207.337 142.013 206.862 142.251C205.278 142.964 204.644 144.945 205.515 146.529Z" fill="#F25B24"/>
<path d="M246.153 164.199C247.024 162.455 249.005 161.584 250.826 162.218C252.886 162.852 253.995 165.07 253.282 167.13C252.648 169.19 250.43 170.3 248.371 169.587C246.311 168.636 245.281 166.259 246.153 164.199Z" fill="white"/>
<path d="M316.654 194.387L296.058 196.764C296.058 196.764 285.285 193.515 283.78 193.119C282.75 192.723 281.958 191.851 281.72 190.821H296.454C297.326 190.821 298.197 190.425 298.752 189.712L303.267 184.562C303.267 184.562 300.257 183.136 298.276 181.868C297.167 181.313 296.534 180.045 296.851 178.778C298.752 178.461 310 182.185 310 182.185L312.614 182.66L316.654 194.387Z" fill="#FFAE73"/>
<defs>
<linearGradient id="paint0_linear" x1="355.841" y1="0" x2="355.841" y2="438.914" gradientUnits="userSpaceOnUse">
<stop stop-color="white"/>
<stop offset="1" stop-color="white" stop-opacity="0"/>
</linearGradient>
</defs>
</svg>
