<svg xmlns="http://www.w3.org/2000/svg" xmlns:xlink="http://www.w3.org/1999/xlink"><defs>
<clipPath id="icon-user-clip0">
<rect width="24" height="24" fill="currentColor" transform="translate(0.000244141)"/>
</clipPath>
</defs><symbol id="icon-user" viewBox="0 0 24 24">
<g clip-path="url(#icon-user-clip0)">
<path d="M24.0002 12C24.0002 5.36774 18.6332 0 12.0002 0C5.36798 0 0.000244141 5.367 0.000244141 12C0.000244141 18.5735 5.32239 24 12.0002 24C18.6506 24 24.0002 18.6037 24.0002 12ZM12.0002 1.40625C17.8417 1.40625 22.594 6.15857 22.594 12C22.594 14.1368 21.9584 16.1907 20.7798 17.9304C16.0469 12.8394 7.96222 12.8302 3.2207 17.9304C2.04205 16.1907 1.40649 14.1368 1.40649 12C1.40649 6.15857 6.15881 1.40625 12.0002 1.40625ZM4.09778 19.0547C8.30591 14.3346 15.6957 14.3357 19.9025 19.0547C15.6803 23.7784 8.32184 23.7799 4.09778 19.0547Z" fill="currentColor"/>
<path d="M12.0002 12.7031C14.3264 12.7031 16.219 10.8105 16.219 8.48438V7.07812C16.219 4.75195 14.3264 2.85938 12.0002 2.85938C9.67407 2.85938 7.78149 4.75195 7.78149 7.07812V8.48438C7.78149 10.8105 9.67407 12.7031 12.0002 12.7031ZM9.18774 7.07812C9.18774 5.52722 10.4493 4.26562 12.0002 4.26562C13.5511 4.26562 14.8127 5.52722 14.8127 7.07812V8.48438C14.8127 10.0353 13.5511 11.2969 12.0002 11.2969C10.4493 11.2969 9.18774 10.0353 9.18774 8.48438V7.07812Z" fill="currentColor"/>
</g>

</symbol><symbol id="logo" viewBox="0 0 147 32">
<path fill-rule="evenodd" clip-rule="evenodd" d="M18.4663 0C8.0782 0 0 8.40864 0 18.6302C0 22.9182 1.48405 27.2051 4.28666 30.5026L5.44 31.8201L7.5836 29.6789L6.75991 28.5229C4.45189 25.7189 3.29694 22.2573 3.29694 18.6302C3.29694 10.0558 10.2231 3.13091 18.7962 3.13091C27.369 3.13091 34.2955 10.0558 34.2955 18.6302C34.2955 22.257 32.975 25.7189 30.8301 28.5231L30.0088 29.6789L32.1519 31.8201L33.3057 30.5026C35.6138 27.0404 37.0965 22.9182 37.0965 18.6302C37.0965 8.40837 28.8544 0 18.4663 0ZM25.2259 10.387L14.8394 18.6302L18.4663 22.2568L26.7097 11.87L25.2259 10.387Z" fill="white"/>
<path fill-rule="evenodd" clip-rule="evenodd" d="M52.3573 3.021V7.30981H60.7686V29.4029H65.3833V7.30981H73.7928V3.021H52.3573ZM78.5754 3.021V29.4029H98.3592V25.2802H83.1919V18.1903H96.3819V14.0697H83.1919V7.14378H98.195V3.021H78.5754ZM112.375 3.021C107.097 3.021 103.305 6.15539 103.305 10.6067C103.305 15.5527 106.438 17.2012 112.045 18.5203C116.991 19.5094 117.981 20.6633 117.981 22.477C117.981 24.4567 116.167 25.7761 113.364 25.7761C110.066 25.7761 107.429 24.4565 104.955 22.3131L102.152 25.6101C105.284 28.4143 109.078 29.7329 113.364 30.0625C118.805 30.0625 122.761 27.0952 122.761 22.1493C122.761 17.6963 119.96 15.7163 114.354 14.3975C109.243 13.2433 108.088 12.2552 108.088 10.2768C108.088 8.46341 109.737 7.14378 112.375 7.14378C114.683 7.14378 117.156 7.96801 119.464 9.78305L121.938 6.32008C119.3 4.17702 116.167 3.021 112.375 3.021ZM125.565 3.021V7.30981H133.974V29.4029H138.591V7.30981H147V3.021H125.565Z" fill="#F25B24"/>
</symbol></svg>